<mxfile host="app.diagrams.net" modified="2021-11-05T15:50:42.724Z" agent="5.0 (Windows)" etag="R8i_ADBrJptxGwAMwvXb" version="15.6.8" type="github">
  <diagram id="ejSZcvtuVqfyeHx35FeS" name="Page-1">
    <mxGraphModel dx="2062" dy="1112" grid="1" gridSize="10" guides="1" tooltips="1" connect="1" arrows="1" fold="1" page="1" pageScale="1" pageWidth="827" pageHeight="1169" math="0" shadow="0">
      <root>
        <mxCell id="0" />
        <mxCell id="1" parent="0" />
        <mxCell id="Q13Ao0YOsxvSURNoIn69-1" value="DNEVNI MENI" style="rounded=0;whiteSpace=wrap;html=1;fillColor=#f8cecc;strokeColor=#b85450;" parent="1" vertex="1">
          <mxGeometry x="76" y="200" width="120" height="60" as="geometry" />
        </mxCell>
        <mxCell id="Q13Ao0YOsxvSURNoIn69-6" style="edgeStyle=orthogonalEdgeStyle;rounded=0;orthogonalLoop=1;jettySize=auto;html=1;entryX=1;entryY=0.5;entryDx=0;entryDy=0;endArrow=none;endFill=0;verticalAlign=bottom;" parent="1" source="Q13Ao0YOsxvSURNoIn69-2" target="Q13Ao0YOsxvSURNoIn69-1" edge="1">
          <mxGeometry relative="1" as="geometry" />
        </mxCell>
        <mxCell id="Q13Ao0YOsxvSURNoIn69-7" style="edgeStyle=orthogonalEdgeStyle;rounded=0;orthogonalLoop=1;jettySize=auto;html=1;entryX=0.5;entryY=0;entryDx=0;entryDy=0;endArrow=none;endFill=0;" parent="1" source="Q13Ao0YOsxvSURNoIn69-2" target="Q13Ao0YOsxvSURNoIn69-3" edge="1">
          <mxGeometry relative="1" as="geometry" />
        </mxCell>
        <mxCell id="Q13Ao0YOsxvSURNoIn69-2" value="OBUHVAĆA" style="rhombus;whiteSpace=wrap;html=1;fillColor=#d5e8d4;strokeColor=#82b366;" parent="1" vertex="1">
          <mxGeometry x="256" y="190" width="80" height="80" as="geometry" />
        </mxCell>
        <mxCell id="Q13Ao0YOsxvSURNoIn69-3" value="JELO" style="rounded=0;whiteSpace=wrap;html=1;fillColor=#f8cecc;strokeColor=#b85450;" parent="1" vertex="1">
          <mxGeometry x="366" y="335" width="120" height="60" as="geometry" />
        </mxCell>
        <mxCell id="Q13Ao0YOsxvSURNoIn69-9" style="edgeStyle=orthogonalEdgeStyle;rounded=0;orthogonalLoop=1;jettySize=auto;html=1;endArrow=none;endFill=0;" parent="1" source="Q13Ao0YOsxvSURNoIn69-4" edge="1">
          <mxGeometry relative="1" as="geometry">
            <mxPoint x="386" y="230" as="targetPoint" />
          </mxGeometry>
        </mxCell>
        <mxCell id="Q13Ao0YOsxvSURNoIn69-10" style="edgeStyle=orthogonalEdgeStyle;rounded=0;orthogonalLoop=1;jettySize=auto;html=1;entryX=0;entryY=0.5;entryDx=0;entryDy=0;endArrow=none;endFill=0;" parent="1" source="Q13Ao0YOsxvSURNoIn69-4" target="Q13Ao0YOsxvSURNoIn69-5" edge="1">
          <mxGeometry relative="1" as="geometry" />
        </mxCell>
        <mxCell id="Q13Ao0YOsxvSURNoIn69-4" value="NUDI" style="rhombus;whiteSpace=wrap;html=1;fillColor=#d5e8d4;strokeColor=#82b366;" parent="1" vertex="1">
          <mxGeometry x="516" y="190" width="80" height="80" as="geometry" />
        </mxCell>
        <mxCell id="Q13Ao0YOsxvSURNoIn69-5" value="MENI" style="rounded=0;whiteSpace=wrap;html=1;fillColor=#f8cecc;strokeColor=#b85450;" parent="1" vertex="1">
          <mxGeometry x="696" y="200" width="120" height="60" as="geometry" />
        </mxCell>
        <mxCell id="Q13Ao0YOsxvSURNoIn69-14" style="edgeStyle=orthogonalEdgeStyle;rounded=0;orthogonalLoop=1;jettySize=auto;html=1;endArrow=none;endFill=0;" parent="1" source="Q13Ao0YOsxvSURNoIn69-11" edge="1">
          <mxGeometry relative="1" as="geometry">
            <mxPoint x="421" y="500" as="targetPoint" />
          </mxGeometry>
        </mxCell>
        <mxCell id="Q13Ao0YOsxvSURNoIn69-16" style="edgeStyle=orthogonalEdgeStyle;rounded=0;orthogonalLoop=1;jettySize=auto;html=1;entryX=0;entryY=0.5;entryDx=0;entryDy=0;endArrow=none;endFill=0;" parent="1" source="Q13Ao0YOsxvSURNoIn69-11" target="Q13Ao0YOsxvSURNoIn69-15" edge="1">
          <mxGeometry relative="1" as="geometry">
            <mxPoint x="741" y="540" as="targetPoint" />
          </mxGeometry>
        </mxCell>
        <mxCell id="Q13Ao0YOsxvSURNoIn69-11" value="SADRŽI" style="rhombus;whiteSpace=wrap;html=1;fillColor=#d5e8d4;strokeColor=#82b366;" parent="1" vertex="1">
          <mxGeometry x="516" y="460" width="80" height="80" as="geometry" />
        </mxCell>
        <mxCell id="Q13Ao0YOsxvSURNoIn69-13" style="edgeStyle=orthogonalEdgeStyle;rounded=0;orthogonalLoop=1;jettySize=auto;html=1;entryX=0.5;entryY=1;entryDx=0;entryDy=0;endArrow=none;endFill=0;" parent="1" source="Q13Ao0YOsxvSURNoIn69-12" target="Q13Ao0YOsxvSURNoIn69-3" edge="1">
          <mxGeometry relative="1" as="geometry" />
        </mxCell>
        <mxCell id="Q13Ao0YOsxvSURNoIn69-12" value="POTREBAN" style="rhombus;whiteSpace=wrap;html=1;fillColor=#d5e8d4;strokeColor=#82b366;" parent="1" vertex="1">
          <mxGeometry x="256" y="460" width="80" height="80" as="geometry" />
        </mxCell>
        <mxCell id="Q13Ao0YOsxvSURNoIn69-15" value="RAČUN" style="rounded=0;whiteSpace=wrap;html=1;fillColor=#f8cecc;strokeColor=#b85450;" parent="1" vertex="1">
          <mxGeometry x="696" y="470" width="120" height="60" as="geometry" />
        </mxCell>
        <mxCell id="pyLBIPnGsoj78sALMK7Z-9" value="" style="edgeStyle=orthogonalEdgeStyle;rounded=0;orthogonalLoop=1;jettySize=auto;html=1;endArrow=none;endFill=0;strokeColor=#000000;" parent="1" source="Q13Ao0YOsxvSURNoIn69-20" target="YkfG2MHVlwWm6KDU2QvL-10" edge="1">
          <mxGeometry relative="1" as="geometry" />
        </mxCell>
        <mxCell id="pyLBIPnGsoj78sALMK7Z-10" style="edgeStyle=orthogonalEdgeStyle;rounded=0;orthogonalLoop=1;jettySize=auto;html=1;entryX=0;entryY=0.5;entryDx=0;entryDy=0;endArrow=none;endFill=0;strokeColor=#000000;" parent="1" source="Q13Ao0YOsxvSURNoIn69-20" target="Q13Ao0YOsxvSURNoIn69-12" edge="1">
          <mxGeometry relative="1" as="geometry" />
        </mxCell>
        <mxCell id="Q13Ao0YOsxvSURNoIn69-20" value="NAMIRNICE" style="rounded=0;whiteSpace=wrap;html=1;fillColor=#f8cecc;strokeColor=#b85450;" parent="1" vertex="1">
          <mxGeometry x="26" y="470" width="120" height="60" as="geometry" />
        </mxCell>
        <mxCell id="Q13Ao0YOsxvSURNoIn69-25" value="(1, N)" style="text;html=1;align=center;verticalAlign=middle;resizable=0;points=[];autosize=1;" parent="1" vertex="1">
          <mxGeometry x="375" y="210" width="50" height="20" as="geometry" />
        </mxCell>
        <mxCell id="Q13Ao0YOsxvSURNoIn69-26" value="(1, N)" style="text;html=1;align=center;verticalAlign=middle;resizable=0;points=[];autosize=1;" parent="1" vertex="1">
          <mxGeometry x="431" y="210" width="50" height="20" as="geometry" />
        </mxCell>
        <mxCell id="Q13Ao0YOsxvSURNoIn69-29" value="(1, N)" style="text;html=1;align=center;verticalAlign=middle;resizable=0;points=[];autosize=1;" parent="1" vertex="1">
          <mxGeometry x="431" y="480" width="50" height="20" as="geometry" />
        </mxCell>
        <mxCell id="Q13Ao0YOsxvSURNoIn69-38" value="(1, N)" style="text;html=1;align=center;verticalAlign=middle;resizable=0;points=[];autosize=1;" parent="1" vertex="1">
          <mxGeometry x="146" y="480" width="50" height="20" as="geometry" />
        </mxCell>
        <mxCell id="NR_qz_YGfGqxAHrg79PI-6" value="&lt;span style=&quot;font-size: 11px ; background-color: rgb(255 , 255 , 255)&quot;&gt;(0, M)&lt;/span&gt;" style="text;html=1;align=center;verticalAlign=middle;resizable=0;points=[];autosize=1;" parent="1" vertex="1">
          <mxGeometry x="374" y="480" width="40" height="20" as="geometry" />
        </mxCell>
        <mxCell id="NR_qz_YGfGqxAHrg79PI-7" value="&lt;span style=&quot;font-size: 11px ; background-color: rgb(255 , 255 , 255)&quot;&gt;(0, M)&lt;/span&gt;" style="text;html=1;align=center;verticalAlign=middle;resizable=0;points=[];autosize=1;" parent="1" vertex="1">
          <mxGeometry x="196" y="210" width="40" height="20" as="geometry" />
        </mxCell>
        <mxCell id="NR_qz_YGfGqxAHrg79PI-8" value="&lt;span style=&quot;font-size: 11px ; background-color: rgb(255 , 255 , 255)&quot;&gt;(0, M)&lt;/span&gt;" style="text;html=1;align=center;verticalAlign=middle;resizable=0;points=[];autosize=1;" parent="1" vertex="1">
          <mxGeometry x="656" y="210" width="40" height="20" as="geometry" />
        </mxCell>
        <mxCell id="NR_qz_YGfGqxAHrg79PI-9" value="&lt;span style=&quot;font-size: 11px ; background-color: rgb(255 , 255 , 255)&quot;&gt;(0, M)&lt;/span&gt;" style="text;html=1;align=center;verticalAlign=middle;resizable=0;points=[];autosize=1;" parent="1" vertex="1">
          <mxGeometry x="656" y="480" width="40" height="20" as="geometry" />
        </mxCell>
        <mxCell id="pyLBIPnGsoj78sALMK7Z-4" value="" style="edgeStyle=orthogonalEdgeStyle;rounded=0;orthogonalLoop=1;jettySize=auto;html=1;endArrow=none;endFill=0;strokeColor=#000000;" parent="1" source="NR_qz_YGfGqxAHrg79PI-19" target="Q13Ao0YOsxvSURNoIn69-12" edge="1">
          <mxGeometry relative="1" as="geometry">
            <Array as="points">
              <mxPoint x="290" y="580" />
              <mxPoint x="290" y="580" />
            </Array>
          </mxGeometry>
        </mxCell>
        <mxCell id="NR_qz_YGfGqxAHrg79PI-19" value="&lt;span&gt;KOLIČINA&lt;/span&gt;" style="ellipse;whiteSpace=wrap;html=1;glass=0;fillColor=#fff2cc;strokeColor=#d6b656;" parent="1" vertex="1">
          <mxGeometry x="246" y="560" width="100" height="50" as="geometry" />
        </mxCell>
        <mxCell id="YkfG2MHVlwWm6KDU2QvL-28" style="edgeStyle=orthogonalEdgeStyle;rounded=0;orthogonalLoop=1;jettySize=auto;html=1;endArrow=none;endFill=0;" parent="1" source="NR_qz_YGfGqxAHrg79PI-21" edge="1">
          <mxGeometry relative="1" as="geometry">
            <mxPoint x="315" y="620" as="targetPoint" />
            <Array as="points">
              <mxPoint x="556" y="620" />
            </Array>
          </mxGeometry>
        </mxCell>
        <mxCell id="NR_qz_YGfGqxAHrg79PI-21" value="&lt;span&gt;NABAVNA CIJENA&lt;/span&gt;" style="ellipse;whiteSpace=wrap;html=1;glass=0;fillColor=#fff2cc;strokeColor=#d6b656;" parent="1" vertex="1">
          <mxGeometry x="506" y="630" width="100" height="50" as="geometry" />
        </mxCell>
        <mxCell id="YkfG2MHVlwWm6KDU2QvL-29" style="edgeStyle=orthogonalEdgeStyle;rounded=0;orthogonalLoop=1;jettySize=auto;html=1;endArrow=none;endFill=0;" parent="1" source="NR_qz_YGfGqxAHrg79PI-33" edge="1">
          <mxGeometry relative="1" as="geometry">
            <mxPoint x="325" y="620" as="targetPoint" />
            <Array as="points">
              <mxPoint x="440" y="620" />
            </Array>
          </mxGeometry>
        </mxCell>
        <mxCell id="NR_qz_YGfGqxAHrg79PI-33" value="&lt;span&gt;ROK TRAJANJA&lt;/span&gt;" style="ellipse;whiteSpace=wrap;html=1;glass=0;fillColor=#fff2cc;strokeColor=#d6b656;" parent="1" vertex="1">
          <mxGeometry x="389.5" y="630" width="100" height="50" as="geometry" />
        </mxCell>
        <mxCell id="v2BE57SrsWe18qW5w4xb-5" style="edgeStyle=orthogonalEdgeStyle;rounded=0;orthogonalLoop=1;jettySize=auto;html=1;endArrow=none;endFill=0;" edge="1" parent="1" source="NR_qz_YGfGqxAHrg79PI-34">
          <mxGeometry relative="1" as="geometry">
            <mxPoint x="90" y="620" as="targetPoint" />
            <Array as="points">
              <mxPoint x="206" y="620" />
            </Array>
          </mxGeometry>
        </mxCell>
        <mxCell id="NR_qz_YGfGqxAHrg79PI-34" value="&lt;span&gt;NAZIV&lt;/span&gt;" style="ellipse;whiteSpace=wrap;html=1;glass=0;fontStyle=0;fillColor=#fff2cc;strokeColor=#d6b656;" parent="1" vertex="1">
          <mxGeometry x="156" y="630" width="100" height="50" as="geometry" />
        </mxCell>
        <mxCell id="YkfG2MHVlwWm6KDU2QvL-27" style="edgeStyle=orthogonalEdgeStyle;rounded=0;orthogonalLoop=1;jettySize=auto;html=1;endArrow=none;endFill=0;" parent="1" source="NR_qz_YGfGqxAHrg79PI-35" edge="1">
          <mxGeometry relative="1" as="geometry">
            <mxPoint x="205" y="620" as="targetPoint" />
            <Array as="points">
              <mxPoint x="322" y="620" />
            </Array>
          </mxGeometry>
        </mxCell>
        <mxCell id="NR_qz_YGfGqxAHrg79PI-35" value="&lt;span&gt;RASPOLOŽIVA KOLIČINA&lt;/span&gt;" style="ellipse;whiteSpace=wrap;html=1;glass=0;fillColor=#fff2cc;strokeColor=#d6b656;" parent="1" vertex="1">
          <mxGeometry x="272" y="630" width="100" height="50" as="geometry" />
        </mxCell>
        <mxCell id="NR_qz_YGfGqxAHrg79PI-64" style="edgeStyle=orthogonalEdgeStyle;rounded=0;orthogonalLoop=1;jettySize=auto;html=1;entryX=0;entryY=1;entryDx=0;entryDy=0;endArrow=none;endFill=0;exitX=0;exitY=0.5;exitDx=0;exitDy=0;" parent="1" source="NR_qz_YGfGqxAHrg79PI-36" target="Q13Ao0YOsxvSURNoIn69-15" edge="1">
          <mxGeometry relative="1" as="geometry" />
        </mxCell>
        <mxCell id="NR_qz_YGfGqxAHrg79PI-36" value="&lt;span&gt;DATUM&lt;/span&gt;" style="ellipse;whiteSpace=wrap;html=1;glass=0;fillColor=#fff2cc;strokeColor=#d6b656;" parent="1" vertex="1">
          <mxGeometry x="716" y="630" width="100" height="50" as="geometry" />
        </mxCell>
        <mxCell id="NR_qz_YGfGqxAHrg79PI-63" style="edgeStyle=orthogonalEdgeStyle;rounded=0;orthogonalLoop=1;jettySize=auto;html=1;entryX=0;entryY=1;entryDx=0;entryDy=0;endArrow=none;endFill=0;exitX=0;exitY=0.5;exitDx=0;exitDy=0;" parent="1" source="NR_qz_YGfGqxAHrg79PI-42" target="Q13Ao0YOsxvSURNoIn69-15" edge="1">
          <mxGeometry relative="1" as="geometry" />
        </mxCell>
        <mxCell id="NR_qz_YGfGqxAHrg79PI-42" value="&lt;span&gt;ID&lt;/span&gt;" style="ellipse;whiteSpace=wrap;html=1;glass=0;fontStyle=4;fillColor=#fff2cc;strokeColor=#d6b656;" parent="1" vertex="1">
          <mxGeometry x="716" y="560" width="100" height="50" as="geometry" />
        </mxCell>
        <mxCell id="NR_qz_YGfGqxAHrg79PI-65" value="" style="edgeStyle=orthogonalEdgeStyle;rounded=0;orthogonalLoop=1;jettySize=auto;html=1;endArrow=none;endFill=0;entryX=0;entryY=1;entryDx=0;entryDy=0;exitX=0;exitY=0.5;exitDx=0;exitDy=0;" parent="1" source="NR_qz_YGfGqxAHrg79PI-49" target="Q13Ao0YOsxvSURNoIn69-1" edge="1">
          <mxGeometry relative="1" as="geometry" />
        </mxCell>
        <mxCell id="NR_qz_YGfGqxAHrg79PI-49" value="ID" style="ellipse;whiteSpace=wrap;html=1;glass=0;fillColor=#fff2cc;strokeColor=#d6b656;fontStyle=4" parent="1" vertex="1">
          <mxGeometry x="96" y="280" width="100" height="50" as="geometry" />
        </mxCell>
        <mxCell id="NR_qz_YGfGqxAHrg79PI-66" value="" style="edgeStyle=orthogonalEdgeStyle;rounded=0;orthogonalLoop=1;jettySize=auto;html=1;endArrow=none;endFill=0;" parent="1" source="NR_qz_YGfGqxAHrg79PI-51" target="Q13Ao0YOsxvSURNoIn69-2" edge="1">
          <mxGeometry relative="1" as="geometry" />
        </mxCell>
        <mxCell id="NR_qz_YGfGqxAHrg79PI-51" value="BROJ PORCIJA" style="ellipse;whiteSpace=wrap;html=1;glass=0;fillColor=#fff2cc;strokeColor=#d6b656;fontStyle=0" parent="1" vertex="1">
          <mxGeometry x="246" y="290" width="100" height="50" as="geometry" />
        </mxCell>
        <mxCell id="YkfG2MHVlwWm6KDU2QvL-23" style="edgeStyle=orthogonalEdgeStyle;rounded=0;orthogonalLoop=1;jettySize=auto;html=1;entryX=1;entryY=0.5;entryDx=0;entryDy=0;endArrow=none;endFill=0;" parent="1" source="NR_qz_YGfGqxAHrg79PI-53" target="Q13Ao0YOsxvSURNoIn69-3" edge="1">
          <mxGeometry relative="1" as="geometry" />
        </mxCell>
        <mxCell id="NR_qz_YGfGqxAHrg79PI-53" value="&lt;span&gt;NAZIV&lt;/span&gt;" style="ellipse;whiteSpace=wrap;html=1;glass=0;fillColor=#fff2cc;strokeColor=#d6b656;fontStyle=0" parent="1" vertex="1">
          <mxGeometry x="530" y="340" width="100" height="50" as="geometry" />
        </mxCell>
        <mxCell id="YkfG2MHVlwWm6KDU2QvL-32" style="edgeStyle=orthogonalEdgeStyle;rounded=0;orthogonalLoop=1;jettySize=auto;html=1;entryX=1;entryY=0.5;entryDx=0;entryDy=0;endArrow=none;endFill=0;" parent="1" source="NR_qz_YGfGqxAHrg79PI-55" target="Q13Ao0YOsxvSURNoIn69-3" edge="1">
          <mxGeometry relative="1" as="geometry" />
        </mxCell>
        <mxCell id="NR_qz_YGfGqxAHrg79PI-55" value="CIJENA" style="ellipse;whiteSpace=wrap;html=1;glass=0;fillColor=#fff2cc;strokeColor=#d6b656;fontStyle=0" parent="1" vertex="1">
          <mxGeometry x="530" y="400" width="100" height="50" as="geometry" />
        </mxCell>
        <mxCell id="NR_qz_YGfGqxAHrg79PI-61" style="edgeStyle=orthogonalEdgeStyle;rounded=0;orthogonalLoop=1;jettySize=auto;html=1;endArrow=none;endFill=0;entryX=0;entryY=1;entryDx=0;entryDy=0;exitX=0;exitY=0.5;exitDx=0;exitDy=0;" parent="1" source="NR_qz_YGfGqxAHrg79PI-56" target="Q13Ao0YOsxvSURNoIn69-5" edge="1">
          <mxGeometry relative="1" as="geometry">
            <mxPoint x="700" y="270" as="targetPoint" />
          </mxGeometry>
        </mxCell>
        <mxCell id="NR_qz_YGfGqxAHrg79PI-56" value="&lt;span&gt;NAZIV&lt;/span&gt;" style="ellipse;whiteSpace=wrap;html=1;glass=0;fillColor=#fff2cc;strokeColor=#d6b656;fontStyle=0" parent="1" vertex="1">
          <mxGeometry x="716" y="340" width="100" height="50" as="geometry" />
        </mxCell>
        <mxCell id="YkfG2MHVlwWm6KDU2QvL-2" style="edgeStyle=orthogonalEdgeStyle;rounded=0;orthogonalLoop=1;jettySize=auto;html=1;exitX=0.5;exitY=0;exitDx=0;exitDy=0;entryX=0.5;entryY=1;entryDx=0;entryDy=0;endArrow=none;endFill=0;" parent="1" source="YkfG2MHVlwWm6KDU2QvL-1" target="Q13Ao0YOsxvSURNoIn69-11" edge="1">
          <mxGeometry relative="1" as="geometry" />
        </mxCell>
        <mxCell id="YkfG2MHVlwWm6KDU2QvL-1" value="KOLIČINA" style="ellipse;whiteSpace=wrap;html=1;glass=0;fillColor=#fff2cc;strokeColor=#d6b656;fontStyle=0" parent="1" vertex="1">
          <mxGeometry x="506" y="560" width="100" height="50" as="geometry" />
        </mxCell>
        <mxCell id="YkfG2MHVlwWm6KDU2QvL-7" style="edgeStyle=orthogonalEdgeStyle;rounded=0;orthogonalLoop=1;jettySize=auto;html=1;endArrow=none;endFill=0;" parent="1" source="YkfG2MHVlwWm6KDU2QvL-5" edge="1">
          <mxGeometry relative="1" as="geometry">
            <mxPoint x="700" y="305" as="targetPoint" />
          </mxGeometry>
        </mxCell>
        <mxCell id="YkfG2MHVlwWm6KDU2QvL-5" value="&lt;span&gt;ID&lt;/span&gt;" style="ellipse;whiteSpace=wrap;html=1;glass=0;fillColor=#fff2cc;strokeColor=#d6b656;fontStyle=4" parent="1" vertex="1">
          <mxGeometry x="716" y="280" width="100" height="50" as="geometry" />
        </mxCell>
        <mxCell id="YkfG2MHVlwWm6KDU2QvL-9" style="edgeStyle=orthogonalEdgeStyle;rounded=0;orthogonalLoop=1;jettySize=auto;html=1;entryX=0;entryY=1;entryDx=0;entryDy=0;endArrow=none;endFill=0;exitX=0;exitY=0.5;exitDx=0;exitDy=0;" parent="1" source="YkfG2MHVlwWm6KDU2QvL-8" target="Q13Ao0YOsxvSURNoIn69-1" edge="1">
          <mxGeometry relative="1" as="geometry" />
        </mxCell>
        <mxCell id="YkfG2MHVlwWm6KDU2QvL-8" value="DATUM" style="ellipse;whiteSpace=wrap;html=1;glass=0;fillColor=#fff2cc;strokeColor=#d6b656;fontStyle=0" parent="1" vertex="1">
          <mxGeometry x="96" y="340" width="100" height="50" as="geometry" />
        </mxCell>
        <mxCell id="YkfG2MHVlwWm6KDU2QvL-26" style="edgeStyle=orthogonalEdgeStyle;rounded=0;orthogonalLoop=1;jettySize=auto;html=1;endArrow=none;endFill=0;" parent="1" source="YkfG2MHVlwWm6KDU2QvL-10" edge="1">
          <mxGeometry relative="1" as="geometry">
            <mxPoint x="205" y="620" as="targetPoint" />
            <Array as="points">
              <mxPoint x="86" y="620" />
            </Array>
          </mxGeometry>
        </mxCell>
        <mxCell id="YkfG2MHVlwWm6KDU2QvL-10" value="&lt;span&gt;ID&lt;/span&gt;" style="ellipse;whiteSpace=wrap;html=1;glass=0;fontStyle=4;fillColor=#fff2cc;strokeColor=#d6b656;" parent="1" vertex="1">
          <mxGeometry x="36" y="630" width="100" height="50" as="geometry" />
        </mxCell>
        <mxCell id="YkfG2MHVlwWm6KDU2QvL-31" style="edgeStyle=orthogonalEdgeStyle;rounded=0;orthogonalLoop=1;jettySize=auto;html=1;entryX=1;entryY=0.5;entryDx=0;entryDy=0;endArrow=none;endFill=0;" parent="1" source="YkfG2MHVlwWm6KDU2QvL-21" target="Q13Ao0YOsxvSURNoIn69-3" edge="1">
          <mxGeometry relative="1" as="geometry" />
        </mxCell>
        <mxCell id="YkfG2MHVlwWm6KDU2QvL-21" value="&lt;span&gt;ID&lt;/span&gt;" style="ellipse;whiteSpace=wrap;html=1;glass=0;fillColor=#fff2cc;strokeColor=#d6b656;fontStyle=4" parent="1" vertex="1">
          <mxGeometry x="530" y="280" width="100" height="50" as="geometry" />
        </mxCell>
        <mxCell id="v2BE57SrsWe18qW5w4xb-1" value="USERS" style="rounded=0;whiteSpace=wrap;html=1;fillColor=#f8cecc;strokeColor=#b85450;" vertex="1" parent="1">
          <mxGeometry x="348" y="890" width="120" height="60" as="geometry" />
        </mxCell>
        <mxCell id="v2BE57SrsWe18qW5w4xb-23" value="" style="edgeStyle=orthogonalEdgeStyle;rounded=0;orthogonalLoop=1;jettySize=auto;html=1;endArrow=none;endFill=0;" edge="1" parent="1" source="v2BE57SrsWe18qW5w4xb-7" target="v2BE57SrsWe18qW5w4xb-1">
          <mxGeometry relative="1" as="geometry" />
        </mxCell>
        <mxCell id="v2BE57SrsWe18qW5w4xb-7" value="CREATE AT" style="ellipse;whiteSpace=wrap;html=1;glass=0;fontStyle=0;fillColor=#fff2cc;strokeColor=#d6b656;" vertex="1" parent="1">
          <mxGeometry x="192" y="880" width="100" height="50" as="geometry" />
        </mxCell>
        <mxCell id="v2BE57SrsWe18qW5w4xb-22" value="" style="edgeStyle=orthogonalEdgeStyle;rounded=0;orthogonalLoop=1;jettySize=auto;html=1;endArrow=none;endFill=0;" edge="1" parent="1" source="v2BE57SrsWe18qW5w4xb-9" target="v2BE57SrsWe18qW5w4xb-1">
          <mxGeometry relative="1" as="geometry" />
        </mxCell>
        <mxCell id="v2BE57SrsWe18qW5w4xb-9" value="USERNAME" style="ellipse;whiteSpace=wrap;html=1;glass=0;fillColor=#fff2cc;strokeColor=#d6b656;" vertex="1" parent="1">
          <mxGeometry x="192" y="950" width="100" height="50" as="geometry" />
        </mxCell>
        <mxCell id="v2BE57SrsWe18qW5w4xb-21" style="edgeStyle=orthogonalEdgeStyle;rounded=0;orthogonalLoop=1;jettySize=auto;html=1;endArrow=none;endFill=0;" edge="1" parent="1" source="v2BE57SrsWe18qW5w4xb-11">
          <mxGeometry relative="1" as="geometry">
            <mxPoint x="320" y="920" as="targetPoint" />
          </mxGeometry>
        </mxCell>
        <mxCell id="v2BE57SrsWe18qW5w4xb-11" value="&lt;span&gt;ID&lt;/span&gt;" style="ellipse;whiteSpace=wrap;html=1;glass=0;fontStyle=4;fillColor=#fff2cc;strokeColor=#d6b656;" vertex="1" parent="1">
          <mxGeometry x="192" y="1020" width="100" height="50" as="geometry" />
        </mxCell>
        <mxCell id="v2BE57SrsWe18qW5w4xb-28" style="edgeStyle=orthogonalEdgeStyle;rounded=0;orthogonalLoop=1;jettySize=auto;html=1;entryX=0;entryY=0.5;entryDx=0;entryDy=0;endArrow=none;endFill=0;" edge="1" parent="1" source="v2BE57SrsWe18qW5w4xb-12" target="v2BE57SrsWe18qW5w4xb-1">
          <mxGeometry relative="1" as="geometry" />
        </mxCell>
        <mxCell id="v2BE57SrsWe18qW5w4xb-12" value="PASSWORD" style="ellipse;whiteSpace=wrap;html=1;glass=0;fontStyle=0;fillColor=#fff2cc;strokeColor=#d6b656;" vertex="1" parent="1">
          <mxGeometry x="192" y="810" width="100" height="50" as="geometry" />
        </mxCell>
        <mxCell id="v2BE57SrsWe18qW5w4xb-20" style="edgeStyle=orthogonalEdgeStyle;rounded=0;orthogonalLoop=1;jettySize=auto;html=1;entryX=0;entryY=0.5;entryDx=0;entryDy=0;endArrow=none;endFill=0;" edge="1" parent="1" source="v2BE57SrsWe18qW5w4xb-13" target="v2BE57SrsWe18qW5w4xb-1">
          <mxGeometry relative="1" as="geometry" />
        </mxCell>
        <mxCell id="v2BE57SrsWe18qW5w4xb-13" value="EMAIL" style="ellipse;whiteSpace=wrap;html=1;glass=0;fillColor=#fff2cc;strokeColor=#d6b656;" vertex="1" parent="1">
          <mxGeometry x="192" y="740" width="100" height="50" as="geometry" />
        </mxCell>
        <mxCell id="v2BE57SrsWe18qW5w4xb-30" style="edgeStyle=orthogonalEdgeStyle;rounded=0;orthogonalLoop=1;jettySize=auto;html=1;entryX=1;entryY=0.5;entryDx=0;entryDy=0;endArrow=none;endFill=0;" edge="1" parent="1" source="v2BE57SrsWe18qW5w4xb-15" target="v2BE57SrsWe18qW5w4xb-1">
          <mxGeometry relative="1" as="geometry" />
        </mxCell>
        <mxCell id="v2BE57SrsWe18qW5w4xb-15" value="FULL NAME" style="ellipse;whiteSpace=wrap;html=1;glass=0;fontStyle=0;fillColor=#fff2cc;strokeColor=#d6b656;" vertex="1" parent="1">
          <mxGeometry x="532" y="1020" width="100" height="50" as="geometry" />
        </mxCell>
        <mxCell id="v2BE57SrsWe18qW5w4xb-32" value="" style="edgeStyle=orthogonalEdgeStyle;rounded=0;orthogonalLoop=1;jettySize=auto;html=1;endArrow=none;endFill=0;" edge="1" parent="1" source="v2BE57SrsWe18qW5w4xb-16" target="v2BE57SrsWe18qW5w4xb-1">
          <mxGeometry relative="1" as="geometry" />
        </mxCell>
        <mxCell id="v2BE57SrsWe18qW5w4xb-16" value="LAST TIME" style="ellipse;whiteSpace=wrap;html=1;glass=0;fillColor=#fff2cc;strokeColor=#d6b656;" vertex="1" parent="1">
          <mxGeometry x="532" y="950" width="100" height="50" as="geometry" />
        </mxCell>
        <mxCell id="v2BE57SrsWe18qW5w4xb-31" value="" style="edgeStyle=orthogonalEdgeStyle;rounded=0;orthogonalLoop=1;jettySize=auto;html=1;endArrow=none;endFill=0;" edge="1" parent="1" source="v2BE57SrsWe18qW5w4xb-17" target="v2BE57SrsWe18qW5w4xb-1">
          <mxGeometry relative="1" as="geometry" />
        </mxCell>
        <mxCell id="v2BE57SrsWe18qW5w4xb-17" value="LAST AUTHORIZE" style="ellipse;whiteSpace=wrap;html=1;glass=0;fontStyle=0;fillColor=#fff2cc;strokeColor=#d6b656;" vertex="1" parent="1">
          <mxGeometry x="532" y="880" width="124" height="50" as="geometry" />
        </mxCell>
        <mxCell id="v2BE57SrsWe18qW5w4xb-33" style="edgeStyle=orthogonalEdgeStyle;rounded=0;orthogonalLoop=1;jettySize=auto;html=1;entryX=1;entryY=0.5;entryDx=0;entryDy=0;endArrow=none;endFill=0;" edge="1" parent="1" source="v2BE57SrsWe18qW5w4xb-18" target="v2BE57SrsWe18qW5w4xb-1">
          <mxGeometry relative="1" as="geometry" />
        </mxCell>
        <mxCell id="v2BE57SrsWe18qW5w4xb-18" value="IP ADDRESS" style="ellipse;whiteSpace=wrap;html=1;glass=0;fillColor=#fff2cc;strokeColor=#d6b656;" vertex="1" parent="1">
          <mxGeometry x="532" y="810" width="100" height="50" as="geometry" />
        </mxCell>
        <mxCell id="v2BE57SrsWe18qW5w4xb-29" style="edgeStyle=orthogonalEdgeStyle;rounded=0;orthogonalLoop=1;jettySize=auto;html=1;entryX=1;entryY=0.5;entryDx=0;entryDy=0;endArrow=none;endFill=0;" edge="1" parent="1" source="v2BE57SrsWe18qW5w4xb-19" target="v2BE57SrsWe18qW5w4xb-1">
          <mxGeometry relative="1" as="geometry" />
        </mxCell>
        <mxCell id="v2BE57SrsWe18qW5w4xb-19" value="ACCESS TOKEN" style="ellipse;whiteSpace=wrap;html=1;glass=0;fillColor=#fff2cc;strokeColor=#d6b656;" vertex="1" parent="1">
          <mxGeometry x="532" y="740" width="114" height="50" as="geometry" />
        </mxCell>
      </root>
    </mxGraphModel>
  </diagram>
</mxfile>
